<svg width="100" height="100" viewBox="0 0 100 100" fill="none" xmlns="http://www.w3.org/2000/svg">
  <circle cx="50" cy="50" r="45" fill="black" stroke="#ef4444" stroke-width="2"/>
  <path d="M30 65C30 50 45 45 50 30C55 45 70 50 70 65C70 75 60 85 50 85C40 85 30 75 30 65Z" fill="#ef4444"/>
  <path d="M40 60C40 55 45 52.5 50 45C55 52.5 60 55 60 60C60 65 55 70 50 70C45 70 40 65 40 60Z" fill="black"/>
  <path d="M35 30C35 28.3431 36.3431 27 38 27C39.6569 27 41 28.3431 41 30C41 31.6569 39.6569 33 38 33C36.3431 33 35 31.6569 35 30Z" fill="white"/>
  <path d="M59 30C59 28.3431 60.3431 27 62 27C63.6569 27 65 28.3431 65 30C65 31.6569 63.6569 33 62 33C60.3431 33 59 31.6569 59 30Z" fill="white"/>
  <path d="M50 25L53 20H47L50 25Z" fill="white"/>
</svg>
